<svg xmlns="http://www.w3.org/2000/svg" viewBox="0 0 64 64">
  <!-- Fondo circular -->
  <circle cx="32" cy="32" r="30" fill="#4CAF50"/>
  
  <!-- Plato -->
  <circle cx="32" cy="34" r="20" fill="#fff"/>
  <circle cx="32" cy="34" r="18" fill="#f8f9fa"/>
  
  <!-- Manzana (roja) -->
  <circle cx="24" cy="32" r="6" fill="#e53935"/>
  <path d="M24 26 Q24 24 26 24" stroke="#2e7d32" stroke-width="1.5" fill="none"/>
  <ellipse cx="25" cy="29" rx="1.5" ry="2" fill="#ef5350" opacity="0.3"/>
  
  <!-- Zanahoria (naranja) -->
  <path d="M38 28 L42 36 L40 38 L36 30 Z" fill="#FF9800"/>
  <line x1="40" y1="27" x2="41" y2="29" stroke="#4CAF50" stroke-width="1"/>
  <line x1="38" y1="27" x2="39" y2="29" stroke="#4CAF50" stroke-width="1"/>
  
  <!-- Brócoli (verde) -->
  <circle cx="28" cy="40" r="3.5" fill="#66BB6A"/>
  <circle cx="26" cy="42" r="2.5" fill="#66BB6A"/>
  <circle cx="30" cy="42" r="2.5" fill="#66BB6A"/>
  <rect x="27.5" y="42" width="1.5" height="4" fill="#8BC34A"/>
  
  <!-- Hoja decorativa superior -->
  <path d="M32 12 Q28 16 30 20 Q32 18 32 18 Q32 18 34 20 Q36 16 32 12 Z" fill="#8BC34A"/>
  
  <!-- Tomate cherry -->
  <circle cx="40" cy="40" r="3" fill="#F44336"/>
  <ellipse cx="40" cy="39" rx="1" ry="1.5" fill="#ef5350" opacity="0.4"/>
</svg>